<?xml version="1.0" encoding="UTF-8" standalone="no"?>
<svg
   xmlns:dc="http://purl.org/dc/elements/1.1/"
   xmlns:cc="http://creativecommons.org/ns#"
   xmlns:rdf="http://www.w3.org/1999/02/22-rdf-syntax-ns#"
   xmlns:svg="http://www.w3.org/2000/svg"
   xmlns="http://www.w3.org/2000/svg"
   viewBox="0 0 1122.52 793.70667"
   height="793.70667"
   width="1122.52"
   xml:space="preserve"
   id="svg2"
   version="1.1"><metadata
     id="metadata8"><rdf:RDF><cc:Work
         rdf:about=""><dc:format>image/svg+xml</dc:format><dc:type
           rdf:resource="http://purl.org/dc/dcmitype/StillImage" /></cc:Work></rdf:RDF></metadata><defs
     id="defs6"><clipPath
       id="clipPath18"
       clipPathUnits="userSpaceOnUse"><path
         id="path16"
         d="M 0,595.28 H 841.89 V 0 H 0 Z" /></clipPath></defs><g
     transform="matrix(1.3333333,0,0,-1.3333333,0,793.70667)"
     id="g10"><g
       id="g12"><g
         clip-path="url(#clipPath18)"
         id="g14"><g
           transform="translate(660.3662,127.1299)"
           id="g20"><path
             id="path22"
             style="fill:#000000;fill-opacity:1;fill-rule:nonzero;stroke:none"
             d="m 0,0 c 0,37.408 -94.2,67.731 -210.401,67.731 -116.201,0 -210.4,-30.323 -210.4,-67.731 0,-19.602 25.872,-37.253 67.21,-49.62 3.101,-2.906 14.225,-12.053 35.396,-16.382 0,0 85.89,-22.481 196.566,-1.729 0,0 25.026,3.918 40.618,14.32 C -31.705,-41.015 0,-21.701 0,0" /></g><g
           transform="translate(528.3613,151.6289)"
           id="g24"><path
             id="path26"
             style="fill:#ffffff;fill-opacity:1;fill-rule:nonzero;stroke:none"
             d="m 0,0 c 7.608,0.998 17.424,1.076 25.954,-1.152 9.572,-2.503 17.395,-5.035 26.388,1.309 24.432,17.241 -7.41,23.444 -22.943,25.22 -3.244,0.371 -6.467,0.726 -9.799,0.563" /></g><g
           transform="translate(510.4922,134.9121)"
           id="g28"><path
             id="path30"
             style="fill:#ffffff;fill-opacity:1;fill-rule:nonzero;stroke:none"
             d="M 0,0 C 7.026,0.639 11.723,0.061 18.445,-1.872 23.397,-3.294 31.525,-6.409 36.342,-2.449 49.729,8.552 20.447,14.631 14.411,15.564" /></g><g
           transform="translate(353.7002,147.5937)"
           id="g32"><path
             id="path34"
             style="fill:#ffffff;fill-opacity:1;fill-rule:nonzero;stroke:none"
             d="m 0,0 c -15.043,-3.115 -46.851,-18.359 -24.787,-35.896 8.594,-6.829 22.887,-7.55 33.289,-7.914 11.773,-0.41 21.957,6.454 7.062,12.074 -4.622,1.744 -25.549,3.927 -25.418,10.97 0.168,9.091 24.029,8.662 29.453,8.662" /></g><g
           transform="translate(579.0889,298.6211)"
           id="g36"><path
             id="path38"
             style="fill:#000000;fill-opacity:1;fill-rule:nonzero;stroke:none"
             d="m 0,0 c 68.019,27.093 72.631,-56.491 34.586,-81.713 -13.085,-11.026 -36.893,-20.317 -61.679,-23.199 3.611,4.433 6.805,17.472 7.004,22.971 23.243,0.875 46.355,5.256 53.97,30.795 2.997,10.049 -2.178,44.804 -34.472,29.37 -3.941,-2.359 -6.485,-6.995 -10.361,-8.776" /></g><g
           transform="translate(583.123,288.8213)"
           id="g40"><path
             id="path42"
             style="fill:#000000;fill-opacity:1;fill-rule:nonzero;stroke:none"
             d="m 0,0 c 0,-28.016 -65.68,-50.727 -146.703,-50.727 -81.023,0 -146.705,22.711 -146.705,50.727 0,28.016 65.682,50.727 146.705,50.727 C -65.68,50.727 0,28.016 0,0" /></g><g
           transform="translate(297.209,272.1045)"
           id="g44"><path
             id="path46"
             style="fill:#000000;fill-opacity:1;fill-rule:nonzero;stroke:none"
             d="m 0,0 c 0,0 8.646,-125.663 104.912,-152.756 0,0 40.928,-10.953 103.76,9.223 0,0 74.936,44.962 65.137,153.333 C 273.809,9.8 134.311,-7.493 0,0" /></g><g
           transform="translate(315.6553,260)"
           id="g48"><path
             id="path50"
             style="fill:#ffffff;fill-opacity:1;fill-rule:nonzero;stroke:none"
             d="m 0,0 c 0,0 12.105,-112.021 83.583,-127.393 0,0 -68.596,34.586 -40.35,108.947 z" /></g><g
           transform="translate(523.75,258.6553)"
           id="g52"><path
             id="path54"
             style="fill:#ffffff;fill-opacity:1;fill-rule:nonzero;stroke:none"
             d="m 0,0 c 0,0 19.599,-48.229 -19.022,-107.026 0,0 44.385,46.308 39.005,113.944 z" /></g><g
           transform="translate(302.397,303.8086)"
           id="g56"><path
             id="path58"
             style="fill:#ffffff;fill-opacity:1;fill-rule:nonzero;stroke:none"
             d="m 0,0 c 0,0 -29.398,-42.656 80.125,-49.573 h 28.246 c 0,0 10.376,9.222 -2.882,10.952 0,0 -40.351,-2.306 -55.915,3.459 C 49.574,-35.162 0,-28.245 0,0" /></g><g
           transform="translate(439.0137,257.6934)"
           id="g60"><path
             id="path62"
             style="fill:#ffffff;fill-opacity:1;fill-rule:nonzero;stroke:none"
             d="m 0,0 c 0,-2.546 -4.388,-4.611 -9.8,-4.611 -5.412,0 -9.8,2.065 -9.8,4.611 0,2.547 4.388,4.611 9.8,4.611 C -4.388,4.611 0,2.547 0,0" /></g><g
           transform="translate(456.8828,317.0669)"
           id="g64"><path
             id="path66"
             style="fill:#ffffff;fill-opacity:1;fill-rule:nonzero;stroke:none"
             d="m 0,0 c 4.921,1.494 4.016,-4.045 -2.305,-5.762 -4.447,-1.208 -9.838,0.107 -14.412,-0.549 -6.435,-0.923 -24.91,-7.667 -10.952,-13.736 7.834,-3.407 22.107,2.157 30.709,1.601 3.924,-0.255 13.475,-1.012 15.433,-5.161 2.745,-5.808 -4.458,-9.601 -8.689,-10.851 -18.255,-5.398 -41.393,-1.307 -60.062,-0.691 -12.715,0.419 -38.474,1.072 -47.068,-10.16 8.75,5.008 19.552,3.053 29.2,2.047 10.825,-1.13 22.533,-0.98 33.56,-0.547 19.595,0.767 40.12,0.664 59.359,2.895 8.805,1.021 19.406,2.394 26.661,7.884 9.552,7.229 6.518,16.486 -5.305,18.648 -4.215,0.773 -28.764,-2.188 -17.448,7.623 6.155,5.338 22.067,-0.066 28.964,-1.182 5.461,-0.885 36.139,-10.787 18.072,-18.602 7.258,0.365 20.171,4.912 19.972,13.861 C 95.471,-2.843 79.651,-0.676 72.053,1.169 52.035,6.033 30.167,10 9.237,12.105 c -40.962,4.12 -88.153,-0.583 -126.844,-11.499 -6.642,-1.874 -39.166,-21.127 -18.085,-23.717 -5.836,22.47 106.111,26.556 121.281,26.57 6.663,0.005 11.394,-0.26 17.294,-2.882" /></g><g
           transform="translate(349.6655,156.8174)"
           id="g68"><path
             id="path70"
             style="fill:#ffffff;fill-opacity:1;fill-rule:nonzero;stroke:none"
             d="m 0,0 c -16.652,1.07 -46.164,-10.558 -55.21,-25.492 -13.123,-21.663 20.319,-38.997 36.764,-43.105 22.496,-5.621 42.874,-7.315 65.137,-8.647 24.162,-1.444 63.496,4.122 67.444,-2.305 -2.883,-8.071 -74.361,-12.105 -134.887,0.559 -23.352,5.582 -108.42,27.016 -74.391,65.731 17.484,19.892 53.997,30.093 79.002,32.281" /></g><g
           transform="translate(623.2393,138.8398)"
           id="g72"><path
             id="path74"
             style="fill:#ffffff;fill-opacity:1;fill-rule:nonzero;stroke:none"
             d="m 0,0 c -1.961,-5.891 -10.284,-8.424 -18.591,-5.659 -8.307,2.766 -13.451,9.782 -11.49,15.673 1.961,5.89 10.283,8.423 18.59,5.658 C -3.184,12.907 1.96,5.891 0,0" /></g><g
           transform="translate(443.3584,349.3267)"
           id="g76"><path
             id="path78"
             style="fill:#ffffff;fill-opacity:1;fill-rule:nonzero;stroke:none"
             d="m 0,0 c -34.896,32.301 18.472,60.758 20.442,84.181 1.645,19.558 -12.073,29.095 -21.905,43.81 -27.268,31.422 8.275,65.846 7.76,70.325" /></g><g
           transform="translate(443.3584,349.3267)"
           id="g80"><path
             id="path82"
             style="fill:#000000;fill-opacity:1;fill-rule:nonzero;stroke:none"
             d="m 0,0 c -2.672,1.599 -5.245,3.537 -7.535,5.826 -2.307,2.285 -4.323,4.998 -5.851,8.104 -1.491,3.111 -2.459,6.629 -2.65,10.213 -0.247,3.589 0.226,7.18 1.098,10.562 0.848,3.401 2.149,6.58 3.578,9.611 1.43,3.032 3.106,5.859 4.793,8.608 1.69,2.745 3.512,5.339 5.273,7.898 1.753,2.568 3.582,5.002 5.259,7.447 1.669,2.443 3.315,4.814 4.691,7.144 1.373,2.325 2.506,4.621 3.166,6.613 0.326,0.997 0.52,1.913 0.586,2.701 l 0.009,0.075 0.005,0.038 c -0.005,-0.077 0.016,0.197 -0.011,-0.167 l 0.001,0.036 0.016,0.288 0.032,0.574 0.031,0.575 c 0.011,0.201 0.02,0.389 0.013,0.494 -0.01,0.52 0.01,1 -0.017,1.621 -0.048,2.36 -0.428,4.616 -1.124,6.843 -0.718,2.217 -1.691,4.446 -3.001,6.704 -1.287,2.262 -2.902,4.522 -4.605,6.9 -1.71,2.367 -3.595,4.787 -5.469,7.344 -1.854,2.568 -3.717,5.273 -5.457,8.127 l 0.524,-0.685 c -2.266,2.848 -4.299,5.947 -5.948,9.285 -1.671,3.322 -2.897,6.905 -3.63,10.564 -0.761,3.655 -0.963,7.393 -0.707,11.026 0.255,3.632 0.941,7.168 2,10.514 1.033,3.354 2.391,6.537 3.967,9.545 1.554,3.02 3.37,5.85 5.263,8.57 1.929,2.701 3.971,5.277 6.091,7.752 1.047,1.246 2.147,2.444 3.196,3.667 0.527,0.611 1.048,1.223 1.535,1.855 0.467,0.638 1.035,1.246 1.175,2.044 0.116,-0.833 -0.243,-1.653 -0.512,-2.418 -0.304,-0.769 -0.641,-1.516 -0.981,-2.26 -0.692,-1.481 -1.379,-2.957 -2.086,-4.406 -1.398,-2.909 -2.762,-5.796 -3.96,-8.716 -1.235,-2.899 -2.276,-5.846 -3.166,-8.776 -0.872,-2.939 -1.518,-5.892 -1.918,-8.808 -0.384,-2.923 -0.474,-5.811 -0.271,-8.61 0.109,-1.4 0.318,-2.775 0.596,-4.12 0.262,-1.348 0.607,-2.668 1.053,-3.952 0.443,-1.282 0.935,-2.54 1.548,-3.749 0.616,-1.206 1.229,-2.409 1.98,-3.549 0.73,-1.147 1.522,-2.264 2.393,-3.335 0.843,-1.086 1.809,-2.098 2.746,-3.129 l 0.049,-0.053 0.475,-0.632 c 1.683,-2.242 3.522,-4.44 5.487,-6.674 1.937,-2.256 3.975,-4.557 6.041,-7.029 2.077,-2.455 4.117,-5.142 6.012,-8.13 1.892,-2.976 3.624,-6.303 4.801,-9.928 1.196,-3.609 1.893,-7.459 2.023,-11.233 0.058,-0.913 0.023,-1.968 -0.003,-2.982 C 28.6,85.548 28.587,85.354 28.572,85.171 L 28.534,84.598 28.495,84.023 28.477,83.736 28.441,83.358 28.419,83.147 C 28.182,80.88 27.649,78.793 26.992,76.886 25.679,73.056 23.84,69.928 21.962,67.058 20.077,64.187 18.109,61.587 16.089,59.128 14.071,56.671 12.103,54.284 10.1,51.998 8.103,49.705 6.199,47.417 4.33,45.163 2.452,42.914 0.737,40.618 -0.889,38.327 c -1.609,-2.3 -3.008,-4.66 -4.183,-7.059 -0.592,-1.202 -1.066,-2.424 -1.482,-3.663 -0.431,-1.235 -0.765,-2.491 -0.975,-3.768 -0.2,-1.276 -0.348,-2.576 -0.344,-3.895 0.004,-1.318 0.142,-2.65 0.36,-4.006 0.493,-2.692 1.432,-5.433 2.76,-8.091 C -3.432,5.168 -1.826,2.571 0,0" /></g></g></g></g></svg>